<?xml version="1.0" encoding="UTF-8" standalone="no"?>
<!-- Created with Inkscape (http://www.inkscape.org/) -->

<svg
   xmlns:dc="http://purl.org/dc/elements/1.1/"
   xmlns:cc="http://creativecommons.org/ns#"
   xmlns:rdf="http://www.w3.org/1999/02/22-rdf-syntax-ns#"
   xmlns:svg="http://www.w3.org/2000/svg"
   xmlns="http://www.w3.org/2000/svg"
   xmlns:sodipodi="http://sodipodi.sourceforge.net/DTD/sodipodi-0.dtd"
   xmlns:inkscape="http://www.inkscape.org/namespaces/inkscape"
   width="520"
   height="520"
   id="svg2"
   version="1.1"
   inkscape:version="0.48.4 r9939"
   sodipodi:docname="onion.svg">
  <defs
     id="defs4">
    <inkscape:perspective
       sodipodi:type="inkscape:persp3d"
       inkscape:vp_x="0 : 526.18109 : 1"
       inkscape:vp_y="0 : 1000 : 0"
       inkscape:vp_z="744.09448 : 526.18109 : 1"
       inkscape:persp3d-origin="372.04724 : 350.78739 : 1"
       id="perspective2390" />
    <inkscape:perspective
       id="perspective10"
       inkscape:persp3d-origin="372.04724 : 350.78739 : 1"
       inkscape:vp_z="744.09448 : 526.18109 : 1"
       inkscape:vp_y="0 : 1000 : 0"
       inkscape:vp_x="0 : 526.18109 : 1"
       sodipodi:type="inkscape:persp3d" />
  </defs>
  <sodipodi:namedview
     id="base"
     pagecolor="#ffffff"
     bordercolor="#666666"
     borderopacity="1.0"
     inkscape:pageopacity="0.0"
     inkscape:pageshadow="2"
     inkscape:zoom="1.979899"
     inkscape:cx="207.06283"
     inkscape:cy="255.12454"
     inkscape:document-units="px"
     inkscape:current-layer="layer1"
     showgrid="false"
     inkscape:window-width="1920"
     inkscape:window-height="1025"
     inkscape:window-x="0"
     inkscape:window-y="27"
     inkscape:window-maximized="1" />
  <metadata
     id="metadata7">
    <rdf:RDF>
      <cc:Work
         rdf:about="">
        <dc:format>image/svg+xml</dc:format>
        <dc:type
           rdf:resource="http://purl.org/dc/dcmitype/StillImage" />
        <dc:title></dc:title>
      </cc:Work>
    </rdf:RDF>
  </metadata>
  <g
     inkscape:label="Layer 1"
     inkscape:groupmode="layer"
     id="layer1"
     transform="translate(0,-532.36218)">
    <path
       sodipodi:type="arc"
       style="fill:none;stroke:#000000;stroke-width:1.545977;stroke-linecap:butt;stroke-linejoin:miter;stroke-miterlimit:4;stroke-opacity:1;stroke-dasharray:none"
       id="path2985"
       sodipodi:cx="207.14285"
       sodipodi:cy="212.85715"
       sodipodi:rx="57.142857"
       sodipodi:ry="57.142857"
       d="m 264.28571,212.85715 a 57.142857,57.142857 0 1 1 -114.28571,0 57.142857,57.142857 0 1 1 114.28571,0 z"
       transform="matrix(0.86768896,0,0,0.8677321,80.264458,607.67811)" />
    <path
       sodipodi:type="arc"
       style="fill:none;stroke:#000000;stroke-width:0.65238482;stroke-linecap:butt;stroke-linejoin:miter;stroke-miterlimit:4;stroke-opacity:1;stroke-dasharray:none"
       id="path2985-6"
       sodipodi:cx="207.14285"
       sodipodi:cy="212.85715"
       sodipodi:rx="57.142857"
       sodipodi:ry="57.142857"
       d="m 264.28571,212.85715 a 57.142857,57.142857 0 1 1 -114.28571,0 57.142857,57.142857 0 1 1 114.28571,0 z"
       transform="matrix(2.0561902,0,0,2.0562924,-165.92508,354.68455)" />
    <path
       sodipodi:type="arc"
       style="fill:none;stroke:#000000;stroke-width:0.41878566;stroke-linecap:butt;stroke-linejoin:miter;stroke-miterlimit:4;stroke-opacity:1;stroke-dasharray:none"
       id="path2985-0"
       sodipodi:cx="207.14285"
       sodipodi:cy="212.85715"
       sodipodi:rx="57.142857"
       sodipodi:ry="57.142857"
       d="m 264.28571,212.85715 a 57.142857,57.142857 0 1 1 -114.28571,0 57.142857,57.142857 0 1 1 114.28571,0 z"
       transform="matrix(3.2031354,0,0,3.2032947,-403.50659,110.53693)" />
    <path
       sodipodi:type="arc"
       style="fill:none;stroke:#000000;stroke-width:0.31935102;stroke-linecap:butt;stroke-linejoin:miter;stroke-miterlimit:4;stroke-opacity:1;stroke-dasharray:none"
       id="path2985-7"
       sodipodi:cx="207.14285"
       sodipodi:cy="212.85715"
       sodipodi:rx="57.142857"
       sodipodi:ry="57.142857"
       d="m 264.28571,212.85715 a 57.142857,57.142857 0 1 1 -114.28571,0 57.142857,57.142857 0 1 1 114.28571,0 z"
       transform="matrix(4.200479,0,0,4.2006879,-610.09919,-101.76535)" />
    <text
       xml:space="preserve"
       style="font-size:40px;font-style:normal;font-weight:normal;line-height:125%;letter-spacing:0px;word-spacing:0px;fill:#000000;fill-opacity:1;stroke:none;font-family:Sans"
       x="259.63138"
       y="796.10913"
       id="text3800"
       sodipodi:linespacing="125%"><tspan
         sodipodi:role="line"
         id="tspan3802"
         x="259.63138"
         y="796.10913"
         style="font-size:10px;text-align:center;text-anchor:middle">Product</tspan></text>
    <text
       xml:space="preserve"
       style="font-size:40px;font-style:normal;font-weight:normal;line-height:125%;letter-spacing:0px;word-spacing:0px;fill:#000000;fill-opacity:1;stroke:none;font-family:Sans"
       x="260.09769"
       y="716.09021"
       id="text3800-0"
       sodipodi:linespacing="125%"><tspan
         sodipodi:role="line"
         x="260.09769"
         y="716.09021"
         style="font-size:10px;text-align:center;text-anchor:middle"
         id="tspan3829">System</tspan></text>
    <text
       xml:space="preserve"
       style="font-size:40px;font-style:normal;font-weight:normal;line-height:125%;letter-spacing:0px;word-spacing:0px;fill:#000000;fill-opacity:1;stroke:none;font-family:Sans"
       x="260.14651"
       y="649.8045"
       id="text3800-1"
       sodipodi:linespacing="125%"><tspan
         sodipodi:role="line"
         id="tspan3802-4"
         x="260.14651"
         y="649.8045"
         style="font-size:10px;text-align:center;text-anchor:middle">Containing System</tspan></text>
    <text
       xml:space="preserve"
       style="font-size:40px;font-style:normal;font-weight:normal;line-height:125%;letter-spacing:0px;word-spacing:0px;fill:#000000;fill-opacity:1;stroke:none;font-family:Sans"
       x="259.95609"
       y="586.94739"
       id="text3800-6"
       sodipodi:linespacing="125%"><tspan
         sodipodi:role="line"
         id="tspan3802-6"
         x="259.95609"
         y="586.94739"
         style="font-size:10px;text-align:center;text-anchor:middle">Wider Environment</tspan></text>
    <g
       id="g4244"
       transform="translate(78.266517,71.215754)">
      <g
         style="fill:#808080"
         transform="matrix(0.03281963,0,0,0.03281963,353.67754,586.12919)"
         inkscape:label="Layer 1"
         id="layer1-8">
        <path
           inkscape:connector-curvature="0"
           style="fill:#808080"
           d="m 46.428567,778.04663 c 0,-10.65233 17.738674,-102.20278 20.745198,-107.06747 1.071193,-1.73319 3.731949,-12.96 5.912766,-24.94842 5.087285,-27.96541 14.466582,-58.01312 19.987422,-64.0321 2.37335,-2.5875 23.670877,-8.73809 47.327877,-13.66801 72.6747,-15.1448 104.70521,-26.81041 120.51899,-43.89332 7.5375,-8.14245 18.93736,-16.62864 25.33303,-18.85817 10.16136,-3.54227 11.62846,-5.79601 11.62846,-17.86365 0,-7.59548 -2.32163,-17.14123 -5.15916,-21.21283 -2.83752,-4.0716 -6.40753,-15.00282 -7.93336,-24.29159 -1.52584,-9.28878 -5.95968,-19.91 -9.85301,-23.60269 -3.89333,-3.69273 -7.0788,-8.4055 -7.0788,-10.47286 0,-2.06733 -3.79995,-8.89843 -8.44434,-15.18015 -7.20303,-9.74245 -8.51348,-16.47837 -8.91475,-45.8228 -0.77523,-56.69314 4.08462,-82.63574 19.96089,-106.55435 22.41717,-33.77291 65.70824,-57.16453 105.99451,-57.27239 15.74176,-0.0421 22.35585,1.783 28.96612,7.993 4.99166,4.68943 16.72254,9.33697 28.1119,11.13738 22.65992,3.58205 43.03946,17.97219 52.9345,37.37747 4.97466,9.75588 6.5634,22.12062 6.56783,51.11597 0.003,21.44308 1.65475,39.26627 3.75885,40.5667 10.20546,6.30733 0.68497,49.88618 -15.32524,70.14945 -6.02033,7.61961 -10.98313,16.90838 -11.02846,20.64172 -0.0453,3.73334 -3.42308,14.15002 -7.50608,23.14816 -13.56027,29.88415 -8.89404,59.46101 10.42549,66.08149 3.60007,1.2337 12.45665,9.8437 19.68125,19.1333 7.22461,9.28964 17.35782,17.8447 22.51825,19.01118 5.16043,1.16652 28.30281,9.55584 51.42747,18.64297 23.12467,9.08709 43.17199,16.52201 44.54962,16.52201 1.37759,0 9.82073,4.64439 18.7625,10.32087 15.97955,10.14424 24.12293,23.6851 24.12293,40.11167 0,4.41598 3.49236,14.71939 7.76077,22.89648 6.86908,13.15914 11.54447,38.39485 21.00675,113.38478 l 2.01264,15.95043 -319.38643,0 -319.386383,0 0,-9.44423 z"
           id="path2396" />
      </g>
      <text
         sodipodi:linespacing="125%"
         id="text3928"
         y="623.49152"
         x="365.80258"
         style="font-size:8px;font-style:normal;font-weight:normal;line-height:125%;letter-spacing:0px;word-spacing:0px;fill:#808080;fill-opacity:1;stroke:none;font-family:Sans"
         xml:space="preserve"><tspan
           style="text-align:center;text-anchor:middle"
           id="tspan3932"
           y="623.49152"
           x="365.80258"
           sodipodi:role="line">Partner-</tspan><tspan
           style="text-align:center;text-anchor:middle"
           id="tspan4242"
           y="633.49152"
           x="365.80258"
           sodipodi:role="line">Garagen</tspan></text>
    </g>
    <g
       id="g4229"
       transform="translate(-382.90873,-29.044176)">
      <g
         style="fill:#808080"
         transform="matrix(0.03281963,0,0,0.03281963,445.94889,686.38912)"
         inkscape:label="Layer 1"
         id="layer1-8-9">
        <path
           inkscape:connector-curvature="0"
           style="fill:#808080"
           d="m 46.428567,778.04663 c 0,-10.65233 17.738674,-102.20278 20.745198,-107.06747 1.071193,-1.73319 3.731949,-12.96 5.912766,-24.94842 5.087285,-27.96541 14.466582,-58.01312 19.987422,-64.0321 2.37335,-2.5875 23.670877,-8.73809 47.327877,-13.66801 72.6747,-15.1448 104.70521,-26.81041 120.51899,-43.89332 7.5375,-8.14245 18.93736,-16.62864 25.33303,-18.85817 10.16136,-3.54227 11.62846,-5.79601 11.62846,-17.86365 0,-7.59548 -2.32163,-17.14123 -5.15916,-21.21283 -2.83752,-4.0716 -6.40753,-15.00282 -7.93336,-24.29159 -1.52584,-9.28878 -5.95968,-19.91 -9.85301,-23.60269 -3.89333,-3.69273 -7.0788,-8.4055 -7.0788,-10.47286 0,-2.06733 -3.79995,-8.89843 -8.44434,-15.18015 -7.20303,-9.74245 -8.51348,-16.47837 -8.91475,-45.8228 -0.77523,-56.69314 4.08462,-82.63574 19.96089,-106.55435 22.41717,-33.77291 65.70824,-57.16453 105.99451,-57.27239 15.74176,-0.0421 22.35585,1.783 28.96612,7.993 4.99166,4.68943 16.72254,9.33697 28.1119,11.13738 22.65992,3.58205 43.03946,17.97219 52.9345,37.37747 4.97466,9.75588 6.5634,22.12062 6.56783,51.11597 0.003,21.44308 1.65475,39.26627 3.75885,40.5667 10.20546,6.30733 0.68497,49.88618 -15.32524,70.14945 -6.02033,7.61961 -10.98313,16.90838 -11.02846,20.64172 -0.0453,3.73334 -3.42308,14.15002 -7.50608,23.14816 -13.56027,29.88415 -8.89404,59.46101 10.42549,66.08149 3.60007,1.2337 12.45665,9.8437 19.68125,19.1333 7.22461,9.28964 17.35782,17.8447 22.51825,19.01118 5.16043,1.16652 28.30281,9.55584 51.42747,18.64297 23.12467,9.08709 43.17199,16.52201 44.54962,16.52201 1.37759,0 9.82073,4.64439 18.7625,10.32087 15.97955,10.14424 24.12293,23.6851 24.12293,40.11167 0,4.41598 3.49236,14.71939 7.76077,22.89648 6.86908,13.15914 11.54447,38.39485 21.00675,113.38478 l 2.01264,15.95043 -319.38643,0 -319.386383,0 0,-9.44423 z"
           id="path2396-4" />
      </g>
      <text
         sodipodi:linespacing="125%"
         id="text3928-9"
         y="723.7514"
         x="442.85907"
         style="font-size:8px;font-style:normal;font-weight:normal;line-height:125%;letter-spacing:0px;word-spacing:0px;fill:#808080;fill-opacity:1;stroke:none;font-family:Sans"
         xml:space="preserve"><tspan
           id="tspan4161"
           y="723.7514"
           x="442.85907"
           sodipodi:role="line">Kunden</tspan></text>
    </g>
    <g
       id="g4235"
       transform="translate(-164.35848,347.99755)">
      <g
         style="fill:#999999"
         transform="matrix(0.03281963,0,0,0.03281963,412.34083,629.69523)"
         inkscape:label="Layer 1"
         id="layer1-8-9-8">
        <path
           inkscape:connector-curvature="0"
           style="fill:#999999"
           d="m 46.428567,778.04663 c 0,-10.65233 17.738674,-102.20278 20.745198,-107.06747 1.071193,-1.73319 3.731949,-12.96 5.912766,-24.94842 5.087285,-27.96541 14.466582,-58.01312 19.987422,-64.0321 2.37335,-2.5875 23.670877,-8.73809 47.327877,-13.66801 72.6747,-15.1448 104.70521,-26.81041 120.51899,-43.89332 7.5375,-8.14245 18.93736,-16.62864 25.33303,-18.85817 10.16136,-3.54227 11.62846,-5.79601 11.62846,-17.86365 0,-7.59548 -2.32163,-17.14123 -5.15916,-21.21283 -2.83752,-4.0716 -6.40753,-15.00282 -7.93336,-24.29159 -1.52584,-9.28878 -5.95968,-19.91 -9.85301,-23.60269 -3.89333,-3.69273 -7.0788,-8.4055 -7.0788,-10.47286 0,-2.06733 -3.79995,-8.89843 -8.44434,-15.18015 -7.20303,-9.74245 -8.51348,-16.47837 -8.91475,-45.8228 -0.77523,-56.69314 4.08462,-82.63574 19.96089,-106.55435 22.41717,-33.77291 65.70824,-57.16453 105.99451,-57.27239 15.74176,-0.0421 22.35585,1.783 28.96612,7.993 4.99166,4.68943 16.72254,9.33697 28.1119,11.13738 22.65992,3.58205 43.03946,17.97219 52.9345,37.37747 4.97466,9.75588 6.5634,22.12062 6.56783,51.11597 0.003,21.44308 1.65475,39.26627 3.75885,40.5667 10.20546,6.30733 0.68497,49.88618 -15.32524,70.14945 -6.02033,7.61961 -10.98313,16.90838 -11.02846,20.64172 -0.0453,3.73334 -3.42308,14.15002 -7.50608,23.14816 -13.56027,29.88415 -8.89404,59.46101 10.42549,66.08149 3.60007,1.2337 12.45665,9.8437 19.68125,19.1333 7.22461,9.28964 17.35782,17.8447 22.51825,19.01118 5.16043,1.16652 28.30281,9.55584 51.42747,18.64297 23.12467,9.08709 43.17199,16.52201 44.54962,16.52201 1.37759,0 9.82073,4.64439 18.7625,10.32087 15.97955,10.14424 24.12293,23.6851 24.12293,40.11167 0,4.41598 3.49236,14.71939 7.76077,22.89648 6.86908,13.15914 11.54447,38.39485 21.00675,113.38478 l 2.01264,15.95043 -319.38643,0 -319.386383,0 0,-9.44423 z"
           id="path2396-4-3" />
      </g>
      <text
         sodipodi:linespacing="125%"
         id="text3928-9-2"
         y="667.05762"
         x="424.16318"
         style="font-size:8px;font-style:normal;font-weight:normal;text-align:center;line-height:125%;letter-spacing:0px;word-spacing:0px;text-anchor:middle;fill:#999999;fill-opacity:1;stroke:none;font-family:Sans"
         xml:space="preserve"><tspan
           id="tspan3932-9-4"
           y="667.05762"
           x="424.16318"
           sodipodi:role="line">Fahrzeug-</tspan><tspan
           id="tspan3990"
           y="677.05762"
           x="424.16318"
           sodipodi:role="line">führer</tspan></text>
    </g>
    <g
       id="g4204"
       transform="translate(-258.35534,30.593765)">
      <g
         style="fill:#800000"
         transform="matrix(0.03281963,0,0,0.03281963,386.35536,826.71558)"
         inkscape:label="Layer 1"
         id="layer1-8-9-2">
        <path
           inkscape:connector-curvature="0"
           style="fill:#800000"
           d="m 46.428567,778.04663 c 0,-10.65233 17.738674,-102.20278 20.745198,-107.06747 1.071193,-1.73319 3.731949,-12.96 5.912766,-24.94842 5.087285,-27.96541 14.466582,-58.01312 19.987422,-64.0321 2.37335,-2.5875 23.670877,-8.73809 47.327877,-13.66801 72.6747,-15.1448 104.70521,-26.81041 120.51899,-43.89332 7.5375,-8.14245 18.93736,-16.62864 25.33303,-18.85817 10.16136,-3.54227 11.62846,-5.79601 11.62846,-17.86365 0,-7.59548 -2.32163,-17.14123 -5.15916,-21.21283 -2.83752,-4.0716 -6.40753,-15.00282 -7.93336,-24.29159 -1.52584,-9.28878 -5.95968,-19.91 -9.85301,-23.60269 -3.89333,-3.69273 -7.0788,-8.4055 -7.0788,-10.47286 0,-2.06733 -3.79995,-8.89843 -8.44434,-15.18015 -7.20303,-9.74245 -8.51348,-16.47837 -8.91475,-45.8228 -0.77523,-56.69314 4.08462,-82.63574 19.96089,-106.55435 22.41717,-33.77291 65.70824,-57.16453 105.99451,-57.27239 15.74176,-0.0421 22.35585,1.783 28.96612,7.993 4.99166,4.68943 16.72254,9.33697 28.1119,11.13738 22.65992,3.58205 43.03946,17.97219 52.9345,37.37747 4.97466,9.75588 6.5634,22.12062 6.56783,51.11597 0.003,21.44308 1.65475,39.26627 3.75885,40.5667 10.20546,6.30733 0.68497,49.88618 -15.32524,70.14945 -6.02033,7.61961 -10.98313,16.90838 -11.02846,20.64172 -0.0453,3.73334 -3.42308,14.15002 -7.50608,23.14816 -13.56027,29.88415 -8.89404,59.46101 10.42549,66.08149 3.60007,1.2337 12.45665,9.8437 19.68125,19.1333 7.22461,9.28964 17.35782,17.8447 22.51825,19.01118 5.16043,1.16652 28.30281,9.55584 51.42747,18.64297 23.12467,9.08709 43.17199,16.52201 44.54962,16.52201 1.37759,0 9.82073,4.64439 18.7625,10.32087 15.97955,10.14424 24.12293,23.6851 24.12293,40.11167 0,4.41598 3.49236,14.71939 7.76077,22.89648 6.86908,13.15914 11.54447,38.39485 21.00675,113.38478 l 2.01264,15.95043 -319.38643,0 -319.386383,0 0,-9.44423 z"
           id="path2396-4-7" />
      </g>
      <text
         sodipodi:linespacing="125%"
         id="text3928-9-9"
         y="864.07788"
         x="376.19528"
         style="font-size:8px;font-style:normal;font-weight:normal;line-height:125%;letter-spacing:0px;word-spacing:0px;fill:#800000;fill-opacity:1;stroke:none;font-family:Sans"
         xml:space="preserve"><tspan
           id="tspan3932-9-5"
           y="864.07788"
           x="376.19528"
           sodipodi:role="line">Disposition</tspan></text>
    </g>
    <g
       id="g4216"
       transform="translate(-2,-11.576143)">
      <g
         style="fill:#008000"
         transform="matrix(0.03281963,0,0,0.03281963,376.70002,694.47033)"
         inkscape:label="Layer 1"
         id="layer1-8-9-2-6">
        <path
           inkscape:connector-curvature="0"
           style="fill:#008000"
           d="m 46.428567,778.04663 c 0,-10.65233 17.738674,-102.20278 20.745198,-107.06747 1.071193,-1.73319 3.731949,-12.96 5.912766,-24.94842 5.087285,-27.96541 14.466582,-58.01312 19.987422,-64.0321 2.37335,-2.5875 23.670877,-8.73809 47.327877,-13.66801 72.6747,-15.1448 104.70521,-26.81041 120.51899,-43.89332 7.5375,-8.14245 18.93736,-16.62864 25.33303,-18.85817 10.16136,-3.54227 11.62846,-5.79601 11.62846,-17.86365 0,-7.59548 -2.32163,-17.14123 -5.15916,-21.21283 -2.83752,-4.0716 -6.40753,-15.00282 -7.93336,-24.29159 -1.52584,-9.28878 -5.95968,-19.91 -9.85301,-23.60269 -3.89333,-3.69273 -7.0788,-8.4055 -7.0788,-10.47286 0,-2.06733 -3.79995,-8.89843 -8.44434,-15.18015 -7.20303,-9.74245 -8.51348,-16.47837 -8.91475,-45.8228 -0.77523,-56.69314 4.08462,-82.63574 19.96089,-106.55435 22.41717,-33.77291 65.70824,-57.16453 105.99451,-57.27239 15.74176,-0.0421 22.35585,1.783 28.96612,7.993 4.99166,4.68943 16.72254,9.33697 28.1119,11.13738 22.65992,3.58205 43.03946,17.97219 52.9345,37.37747 4.97466,9.75588 6.5634,22.12062 6.56783,51.11597 0.003,21.44308 1.65475,39.26627 3.75885,40.5667 10.20546,6.30733 0.68497,49.88618 -15.32524,70.14945 -6.02033,7.61961 -10.98313,16.90838 -11.02846,20.64172 -0.0453,3.73334 -3.42308,14.15002 -7.50608,23.14816 -13.56027,29.88415 -8.89404,59.46101 10.42549,66.08149 3.60007,1.2337 12.45665,9.8437 19.68125,19.1333 7.22461,9.28964 17.35782,17.8447 22.51825,19.01118 5.16043,1.16652 28.30281,9.55584 51.42747,18.64297 23.12467,9.08709 43.17199,16.52201 44.54962,16.52201 1.37759,0 9.82073,4.64439 18.7625,10.32087 15.97955,10.14424 24.12293,23.6851 24.12293,40.11167 0,4.41598 3.49236,14.71939 7.76077,22.89648 6.86908,13.15914 11.54447,38.39485 21.00675,113.38478 l 2.01264,15.95043 -319.38643,0 -319.386383,0 0,-9.44423 z"
           id="path2396-4-7-8" />
      </g>
      <text
         sodipodi:linespacing="125%"
         id="text3928-9-9-5"
         y="731.8327"
         x="388.51062"
         style="font-size:8px;font-style:normal;font-weight:normal;line-height:125%;letter-spacing:0px;word-spacing:0px;fill:#008000;fill-opacity:1;stroke:none;font-family:Sans"
         xml:space="preserve"><tspan
           style="text-align:center;text-anchor:middle;fill:#008000"
           id="tspan3932-9-5-7"
           y="731.8327"
           x="388.51062"
           sodipodi:role="line">Rechnungs-</tspan><tspan
           style="text-align:center;text-anchor:middle;fill:#008000"
           id="tspan4046"
           y="741.8327"
           x="388.51062"
           sodipodi:role="line">wesen</tspan></text>
    </g>
    <g
       id="g4210"
       transform="translate(-27.016388,97.868195)">
      <g
         style="fill:#008000"
         transform="matrix(0.03281963,0,0,0.03281963,397.61098,759.44115)"
         inkscape:label="Layer 1"
         id="layer1-8-9-2-6-7">
        <path
           inkscape:connector-curvature="0"
           style="fill:#008000"
           d="m 46.428567,778.04663 c 0,-10.65233 17.738674,-102.20278 20.745198,-107.06747 1.071193,-1.73319 3.731949,-12.96 5.912766,-24.94842 5.087285,-27.96541 14.466582,-58.01312 19.987422,-64.0321 2.37335,-2.5875 23.670877,-8.73809 47.327877,-13.66801 72.6747,-15.1448 104.70521,-26.81041 120.51899,-43.89332 7.5375,-8.14245 18.93736,-16.62864 25.33303,-18.85817 10.16136,-3.54227 11.62846,-5.79601 11.62846,-17.86365 0,-7.59548 -2.32163,-17.14123 -5.15916,-21.21283 -2.83752,-4.0716 -6.40753,-15.00282 -7.93336,-24.29159 -1.52584,-9.28878 -5.95968,-19.91 -9.85301,-23.60269 -3.89333,-3.69273 -7.0788,-8.4055 -7.0788,-10.47286 0,-2.06733 -3.79995,-8.89843 -8.44434,-15.18015 -7.20303,-9.74245 -8.51348,-16.47837 -8.91475,-45.8228 -0.77523,-56.69314 4.08462,-82.63574 19.96089,-106.55435 22.41717,-33.77291 65.70824,-57.16453 105.99451,-57.27239 15.74176,-0.0421 22.35585,1.783 28.96612,7.993 4.99166,4.68943 16.72254,9.33697 28.1119,11.13738 22.65992,3.58205 43.03946,17.97219 52.9345,37.37747 4.97466,9.75588 6.5634,22.12062 6.56783,51.11597 0.003,21.44308 1.65475,39.26627 3.75885,40.5667 10.20546,6.30733 0.68497,49.88618 -15.32524,70.14945 -6.02033,7.61961 -10.98313,16.90838 -11.02846,20.64172 -0.0453,3.73334 -3.42308,14.15002 -7.50608,23.14816 -13.56027,29.88415 -8.89404,59.46101 10.42549,66.08149 3.60007,1.2337 12.45665,9.8437 19.68125,19.1333 7.22461,9.28964 17.35782,17.8447 22.51825,19.01118 5.16043,1.16652 28.30281,9.55584 51.42747,18.64297 23.12467,9.08709 43.17199,16.52201 44.54962,16.52201 1.37759,0 9.82073,4.64439 18.7625,10.32087 15.97955,10.14424 24.12293,23.6851 24.12293,40.11167 0,4.41598 3.49236,14.71939 7.76077,22.89648 6.86908,13.15914 11.54447,38.39485 21.00675,113.38478 l 2.01264,15.95043 -319.38643,0 -319.386383,0 0,-9.44423 z"
           id="path2396-4-7-8-4" />
      </g>
      <text
         sodipodi:linespacing="125%"
         id="text3928-9-9-5-7"
         y="796.80347"
         x="409.42154"
         style="font-size:8px;font-style:normal;font-weight:normal;line-height:125%;letter-spacing:0px;word-spacing:0px;fill:#008000;fill-opacity:1;stroke:none;font-family:Sans"
         xml:space="preserve"><tspan
           style="text-align:center;text-anchor:middle;fill:#008000"
           id="tspan4046-6"
           y="796.80347"
           x="409.42154"
           sodipodi:role="line">Werkstatt</tspan></text>
    </g>
    <g
       id="g4223"
       transform="translate(-208.5762,34.385797)">
      <g
         style="fill:#808080"
         transform="matrix(0.03281963,0,0,0.03281963,334.65435,648.50839)"
         inkscape:label="Layer 1"
         id="layer1-8-6">
        <path
           inkscape:connector-curvature="0"
           style="fill:#808080"
           d="m 46.428567,778.04663 c 0,-10.65233 17.738674,-102.20278 20.745198,-107.06747 1.071193,-1.73319 3.731949,-12.96 5.912766,-24.94842 5.087285,-27.96541 14.466582,-58.01312 19.987422,-64.0321 2.37335,-2.5875 23.670877,-8.73809 47.327877,-13.66801 72.6747,-15.1448 104.70521,-26.81041 120.51899,-43.89332 7.5375,-8.14245 18.93736,-16.62864 25.33303,-18.85817 10.16136,-3.54227 11.62846,-5.79601 11.62846,-17.86365 0,-7.59548 -2.32163,-17.14123 -5.15916,-21.21283 -2.83752,-4.0716 -6.40753,-15.00282 -7.93336,-24.29159 -1.52584,-9.28878 -5.95968,-19.91 -9.85301,-23.60269 -3.89333,-3.69273 -7.0788,-8.4055 -7.0788,-10.47286 0,-2.06733 -3.79995,-8.89843 -8.44434,-15.18015 -7.20303,-9.74245 -8.51348,-16.47837 -8.91475,-45.8228 -0.77523,-56.69314 4.08462,-82.63574 19.96089,-106.55435 22.41717,-33.77291 65.70824,-57.16453 105.99451,-57.27239 15.74176,-0.0421 22.35585,1.783 28.96612,7.993 4.99166,4.68943 16.72254,9.33697 28.1119,11.13738 22.65992,3.58205 43.03946,17.97219 52.9345,37.37747 4.97466,9.75588 6.5634,22.12062 6.56783,51.11597 0.003,21.44308 1.65475,39.26627 3.75885,40.5667 10.20546,6.30733 0.68497,49.88618 -15.32524,70.14945 -6.02033,7.61961 -10.98313,16.90838 -11.02846,20.64172 -0.0453,3.73334 -3.42308,14.15002 -7.50608,23.14816 -13.56027,29.88415 -8.89404,59.46101 10.42549,66.08149 3.60007,1.2337 12.45665,9.8437 19.68125,19.1333 7.22461,9.28964 17.35782,17.8447 22.51825,19.01118 5.16043,1.16652 28.30281,9.55584 51.42747,18.64297 23.12467,9.08709 43.17199,16.52201 44.54962,16.52201 1.37759,0 9.82073,4.64439 18.7625,10.32087 15.97955,10.14424 24.12293,23.6851 24.12293,40.11167 0,4.41598 3.49236,14.71939 7.76077,22.89648 6.86908,13.15914 11.54447,38.39485 21.00675,113.38478 l 2.01264,15.95043 -319.38643,0 -319.386383,0 0,-9.44423 z"
           id="path2396-5" />
      </g>
      <text
         sodipodi:linespacing="125%"
         id="text3928-0"
         y="685.87073"
         x="328.41614"
         style="font-size:8px;font-style:normal;font-weight:normal;line-height:125%;letter-spacing:0px;word-spacing:0px;fill:#808080;fill-opacity:1;stroke:none;font-family:Sans"
         xml:space="preserve"><tspan
           id="tspan3932-4"
           y="685.87073"
           x="328.41614"
           sodipodi:role="line">Direktion</tspan></text>
    </g>
    <g
       id="g4192"
       transform="translate(0,3.6686873)">
      <g
         style="fill:#000080"
         transform="matrix(0.03281963,0,0,0.03281963,329.47276,766.96653)"
         inkscape:label="Layer 1"
         id="layer1-8-6-3">
        <path
           inkscape:connector-curvature="0"
           style="fill:#000080"
           d="m 46.428567,778.04663 c 0,-10.65233 17.738674,-102.20278 20.745198,-107.06747 1.071193,-1.73319 3.731949,-12.96 5.912766,-24.94842 5.087285,-27.96541 14.466582,-58.01312 19.987422,-64.0321 2.37335,-2.5875 23.670877,-8.73809 47.327877,-13.66801 72.6747,-15.1448 104.70521,-26.81041 120.51899,-43.89332 7.5375,-8.14245 18.93736,-16.62864 25.33303,-18.85817 10.16136,-3.54227 11.62846,-5.79601 11.62846,-17.86365 0,-7.59548 -2.32163,-17.14123 -5.15916,-21.21283 -2.83752,-4.0716 -6.40753,-15.00282 -7.93336,-24.29159 -1.52584,-9.28878 -5.95968,-19.91 -9.85301,-23.60269 -3.89333,-3.69273 -7.0788,-8.4055 -7.0788,-10.47286 0,-2.06733 -3.79995,-8.89843 -8.44434,-15.18015 -7.20303,-9.74245 -8.51348,-16.47837 -8.91475,-45.8228 -0.77523,-56.69314 4.08462,-82.63574 19.96089,-106.55435 22.41717,-33.77291 65.70824,-57.16453 105.99451,-57.27239 15.74176,-0.0421 22.35585,1.783 28.96612,7.993 4.99166,4.68943 16.72254,9.33697 28.1119,11.13738 22.65992,3.58205 43.03946,17.97219 52.9345,37.37747 4.97466,9.75588 6.5634,22.12062 6.56783,51.11597 0.003,21.44308 1.65475,39.26627 3.75885,40.5667 10.20546,6.30733 0.68497,49.88618 -15.32524,70.14945 -6.02033,7.61961 -10.98313,16.90838 -11.02846,20.64172 -0.0453,3.73334 -3.42308,14.15002 -7.50608,23.14816 -13.56027,29.88415 -8.89404,59.46101 10.42549,66.08149 3.60007,1.2337 12.45665,9.8437 19.68125,19.1333 7.22461,9.28964 17.35782,17.8447 22.51825,19.01118 5.16043,1.16652 28.30281,9.55584 51.42747,18.64297 23.12467,9.08709 43.17199,16.52201 44.54962,16.52201 1.37759,0 9.82073,4.64439 18.7625,10.32087 15.97955,10.14424 24.12293,23.6851 24.12293,40.11167 0,4.41598 3.49236,14.71939 7.76077,22.89648 6.86908,13.15914 11.54447,38.39485 21.00675,113.38478 l 2.01264,15.95043 -319.38643,0 -319.386383,0 0,-9.44423 z"
           id="path2396-5-3" />
      </g>
      <text
         sodipodi:linespacing="125%"
         id="text3928-0-4"
         y="804.32892"
         x="337.45132"
         style="font-size:8px;font-style:normal;font-weight:normal;line-height:125%;letter-spacing:0px;word-spacing:0px;fill:#000080;fill-opacity:1;stroke:none;font-family:Sans"
         xml:space="preserve"><tspan
           id="tspan3932-4-1"
           y="804.32892"
           x="337.45132"
           sodipodi:role="line">IT</tspan></text>
    </g>
    <g
       id="g4198"
       transform="translate(0,0.58159726)">
      <g
         style="fill:#000080"
         transform="matrix(0.03281963,0,0,0.03281963,166.59577,770.05362)"
         inkscape:label="Layer 1"
         id="layer1-8-6-3-1">
        <path
           inkscape:connector-curvature="0"
           style="fill:#000080"
           d="m 46.428567,778.04663 c 0,-10.65233 17.738674,-102.20278 20.745198,-107.06747 1.071193,-1.73319 3.731949,-12.96 5.912766,-24.94842 5.087285,-27.96541 14.466582,-58.01312 19.987422,-64.0321 2.37335,-2.5875 23.670877,-8.73809 47.327877,-13.66801 72.6747,-15.1448 104.70521,-26.81041 120.51899,-43.89332 7.5375,-8.14245 18.93736,-16.62864 25.33303,-18.85817 10.16136,-3.54227 11.62846,-5.79601 11.62846,-17.86365 0,-7.59548 -2.32163,-17.14123 -5.15916,-21.21283 -2.83752,-4.0716 -6.40753,-15.00282 -7.93336,-24.29159 -1.52584,-9.28878 -5.95968,-19.91 -9.85301,-23.60269 -3.89333,-3.69273 -7.0788,-8.4055 -7.0788,-10.47286 0,-2.06733 -3.79995,-8.89843 -8.44434,-15.18015 -7.20303,-9.74245 -8.51348,-16.47837 -8.91475,-45.8228 -0.77523,-56.69314 4.08462,-82.63574 19.96089,-106.55435 22.41717,-33.77291 65.70824,-57.16453 105.99451,-57.27239 15.74176,-0.0421 22.35585,1.783 28.96612,7.993 4.99166,4.68943 16.72254,9.33697 28.1119,11.13738 22.65992,3.58205 43.03946,17.97219 52.9345,37.37747 4.97466,9.75588 6.5634,22.12062 6.56783,51.11597 0.003,21.44308 1.65475,39.26627 3.75885,40.5667 10.20546,6.30733 0.68497,49.88618 -15.32524,70.14945 -6.02033,7.61961 -10.98313,16.90838 -11.02846,20.64172 -0.0453,3.73334 -3.42308,14.15002 -7.50608,23.14816 -13.56027,29.88415 -8.89404,59.46101 10.42549,66.08149 3.60007,1.2337 12.45665,9.8437 19.68125,19.1333 7.22461,9.28964 17.35782,17.8447 22.51825,19.01118 5.16043,1.16652 28.30281,9.55584 51.42747,18.64297 23.12467,9.08709 43.17199,16.52201 44.54962,16.52201 1.37759,0 9.82073,4.64439 18.7625,10.32087 15.97955,10.14424 24.12293,23.6851 24.12293,40.11167 0,4.41598 3.49236,14.71939 7.76077,22.89648 6.86908,13.15914 11.54447,38.39485 21.00675,113.38478 l 2.01264,15.95043 -319.38643,0 -319.386383,0 0,-9.44423 z"
           id="path2396-5-3-2" />
      </g>
      <text
         sodipodi:linespacing="125%"
         id="text3928-0-4-2"
         y="807.41608"
         x="158.37903"
         style="font-size:8px;font-style:normal;font-weight:normal;line-height:125%;letter-spacing:0px;word-spacing:0px;fill:#000080;fill-opacity:1;stroke:none;font-family:Sans"
         xml:space="preserve"><tspan
           id="tspan3932-4-1-7"
           y="807.41608"
           x="158.37903"
           sodipodi:role="line">Anwender</tspan></text>
    </g>
  </g>
</svg>
